<?xml version="1.0" encoding="UTF-8" standalone="no"?>
<svg
   xmlns:dc="http://purl.org/dc/elements/1.1/"
   xmlns:cc="http://creativecommons.org/ns#"
   xmlns:rdf="http://www.w3.org/1999/02/22-rdf-syntax-ns#"
   xmlns:svg="http://www.w3.org/2000/svg"
   xmlns="http://www.w3.org/2000/svg"
   xmlns:sodipodi="http://sodipodi.sourceforge.net/DTD/sodipodi-0.dtd"
   xmlns:inkscape="http://www.inkscape.org/namespaces/inkscape"
   version="1.1"
   id="svg833"
   width="1194.6667"
   height="672"
   viewBox="0 0 1194.6667 672"
   sodipodi:docname="drip.svg"
   inkscape:version="1.0.1 (3bc2e813f5, 2020-09-07)">
  <metadata
     id="metadata839">
    <rdf:RDF>
      <cc:Work
         rdf:about="">
        <dc:format>image/svg+xml</dc:format>
        <dc:type
           rdf:resource="http://purl.org/dc/dcmitype/StillImage" />
        <dc:title></dc:title>
      </cc:Work>
    </rdf:RDF>
  </metadata>
  <defs
     id="defs837" />
  <sodipodi:namedview
     pagecolor="#ffffff"
     bordercolor="#666666"
     borderopacity="1"
     objecttolerance="10"
     gridtolerance="10"
     guidetolerance="10"
     inkscape:pageopacity="0"
     inkscape:pageshadow="2"
     inkscape:window-width="1920"
     inkscape:window-height="1017"
     id="namedview835"
     showgrid="false"
     inkscape:zoom="0.80851657"
     inkscape:cx="806.32915"
     inkscape:cy="113.9126"
     inkscape:window-x="-8"
     inkscape:window-y="-8"
     inkscape:window-maximized="1"
     inkscape:current-layer="g841" />
  <g
     inkscape:groupmode="layer"
     inkscape:label="Image"
     id="g841">
    <path
       style="fill:#d1fff4;fill-opacity:1;stroke:#d1fff4;stroke-width:2.51215;stroke-linecap:butt;stroke-linejoin:miter;stroke-miterlimit:4;stroke-dasharray:none;stroke-opacity:1"
       d="M 2.9467061,-8.6584468 V 145.75243 c 0,0 83.6121659,5.26401 99.2894439,63.16808 15.6773,57.90408 18.95603,105.63337 24.49878,124.86482 5.54276,19.23145 38.18343,60.17581 72.67169,49.00916 34.48825,-11.16665 42.49446,-29.77771 45.57376,-39.08325 3.07931,-9.30554 15.39654,-86.85168 30.17723,-96.15721 14.78068,-9.30554 20.32343,-10.54628 41.26274,-1.86112 20.9393,8.68517 77.59858,60.17581 96.07443,60.79618 18.47585,0.62036 30.79308,-9.30554 39.41515,-15.50923 8.62206,-6.20369 22.78688,-25.43513 38.79928,-51.49063 16.01241,-26.0555 43.72619,-39.70363 49.88481,-39.08327 6.15861,0.62038 30.17722,1.86112 43.72618,34.74068 13.54895,32.87957 9.85378,58.93507 20.32344,80.02762 10.46965,21.09254 34.48825,33.49993 44.9579,19.85181 10.46965,-13.64812 9.23793,-13.64812 17.85999,-57.69433 8.62206,-44.04621 2.46345,-48.38879 20.32343,-76.92577 17.85999,-28.53698 40.64688,-53.35174 84.98892,-34.1203 44.34205,19.23144 85.60479,71.34245 118.86132,60.1758 33.25653,-11.16664 46.80549,-32.25919 69.59238,-47.14804 22.78687,-14.88887 36.95163,-26.05551 83.14122,39.08324 46.1897,65.13876 96.6903,114.76829 124.4042,112.90718 27.7137,-1.8611 26.482,-1.8611 26.482,-1.8611 l -2.577,-338.1011968 z"
       id="path845"
       sodipodi:nodetypes="ccssssssssssssssssssssccc" />
  </g>
</svg>
