<?xml version="1.0" encoding="UTF-8" standalone="no"?>
<svg
   xmlns:dc="http://purl.org/dc/elements/1.1/"
   xmlns:cc="http://creativecommons.org/ns#"
   xmlns:rdf="http://www.w3.org/1999/02/22-rdf-syntax-ns#"
   xmlns:svg="http://www.w3.org/2000/svg"
   xmlns="http://www.w3.org/2000/svg"
   xmlns:sodipodi="http://sodipodi.sourceforge.net/DTD/sodipodi-0.dtd"
   xmlns:inkscape="http://www.inkscape.org/namespaces/inkscape"
   version="1.1"
   id="svg2250"
   width="288"
   height="288"
   viewBox="0 0 288 288"
   sodipodi:docname="fwheel.svg"
   inkscape:version="1.0.1 (3bc2e813f5, 2020-09-07)">
  <metadata
     id="metadata2256">
    <rdf:RDF>
      <cc:Work
         rdf:about="">
        <dc:format>image/svg+xml</dc:format>
        <dc:type
           rdf:resource="http://purl.org/dc/dcmitype/StillImage" />
        <dc:title></dc:title>
      </cc:Work>
    </rdf:RDF>
  </metadata>
  <defs
     id="defs2254" />
  <sodipodi:namedview
     pagecolor="#ffffff"
     bordercolor="#666666"
     borderopacity="1"
     objecttolerance="10"
     gridtolerance="10"
     guidetolerance="10"
     inkscape:pageopacity="0"
     inkscape:pageshadow="2"
     inkscape:window-width="1920"
     inkscape:window-height="1017"
     id="namedview2252"
     showgrid="false"
     inkscape:zoom="1.4756944"
     inkscape:cx="184.47196"
     inkscape:cy="168.18507"
     inkscape:window-x="-8"
     inkscape:window-y="-8"
     inkscape:window-maximized="1"
     inkscape:current-layer="g2258" />
  <g
     inkscape:groupmode="layer"
     inkscape:label="Image"
     id="g2258">
    <ellipse
       style="fill:#fca4c4;stroke:#170d05;stroke-width:0;stroke-linecap:round;stroke-linejoin:round;opacity:1"
       id="path2823"
       cx="143.66116"
       cy="119.43531"
       rx="96.564713"
       ry="97.750587" />
    <ellipse
       style="opacity:1;fill:#fb1e21;fill-opacity:1;stroke:#170d05;stroke-width:0;stroke-linecap:round;stroke-linejoin:round"
       id="path2827"
       cx="144.16942"
       cy="119.4353"
       rx="93.345879"
       ry="95.717651" />
    <ellipse
       style="opacity:0.6483871;fill:#fbff21;fill-opacity:1;stroke:#170d05;stroke-width:0;stroke-linecap:round;stroke-linejoin:round"
       id="path2829"
       cx="143.83058"
       cy="118.92705"
       rx="31.002352"
       ry="29.477648" />
    <path
       style="fill:none;stroke:#000000;stroke-width:2.61495;stroke-linecap:butt;stroke-linejoin:miter;stroke-miterlimit:4;stroke-dasharray:none;stroke-opacity:1"
       d="M 84.280332,86.365919 117.21109,104.31836"
       id="path2831" />
    <path
       style="fill:none;stroke:#000000;stroke-width:2.21991;stroke-linecap:butt;stroke-linejoin:miter;stroke-miterlimit:4;stroke-dasharray:none;stroke-opacity:1"
       d="M 144.33882,51.501176 V 89.449412"
       id="path2833" />
    <path
       style="fill:none;stroke:#000000;stroke-width:2.32346;stroke-linecap:butt;stroke-linejoin:miter;stroke-miterlimit:4;stroke-dasharray:none;stroke-opacity:1"
       d="M 171.6445,105.66107 201.51149,88.224674"
       id="path2835" />
    <path
       style="fill:none;stroke:#000000;stroke-width:2.24754;stroke-linecap:butt;stroke-linejoin:miter;stroke-miterlimit:4;stroke-dasharray:none;stroke-opacity:1"
       d="m 170.44054,134.19679 29.9322,16.01971"
       id="path2837" />
    <path
       style="fill:none;stroke:#000000;stroke-width:2.2;stroke-linecap:butt;stroke-linejoin:miter;stroke-opacity:1;stroke-miterlimit:4;stroke-dasharray:none"
       d="m 145.69412,148.45849 -0.33883,36.20033"
       id="path2839" />
    <path
       style="fill:none;stroke:#000000;stroke-width:2.2;stroke-linecap:butt;stroke-linejoin:miter;stroke-opacity:1;stroke-miterlimit:4;stroke-dasharray:none"
       d="M 118.15691,135.62654 90.8125,152.79699"
       id="path2841" />
    <path
       style="fill:#f94e46;stroke:#000000;stroke-width:1px;stroke-linecap:butt;stroke-linejoin:miter;stroke-opacity:1;fill-opacity:1"
       d="m 199.56706,156.28235 c 0,0 -0.93177,-6.86117 4.32,-10.58823 5.25176,-3.72706 7.62353,-3.89647 9.65647,-4.32 2.03294,-0.42353 23.54823,-0.33882 23.54823,-0.33882 0,0 13.08066,1.18441 14.4,9.48706 1.27919,8.04992 0.97007,9.44334 1.10118,15.58588 0.13016,6.09743 -0.33882,17.70352 -2.54118,20.49882 -2.20235,2.79529 -3.38823,5.8447 -10.58823,5.92941 -7.2,0.0847 -26.25882,-0.0847 -26.25882,-0.0847 0,0 -12.19765,0.33883 -13.21412,-8.64 -1.01647,-8.97882 -0.42353,-21.85412 -0.42353,-21.85412 z"
       id="path2859"
       sodipodi:nodetypes="csscsssscscc" />
    <rect
       style="opacity:0.596774;fill:#fbff21;fill-opacity:1;stroke:#170d05;stroke-width:0;stroke-linecap:round;stroke-linejoin:round"
       id="rect2861"
       width="21.442804"
       height="25.276155"
       x="205.08426"
       y="155.13091" />
    <rect
       style="opacity:0.596774;fill:#fbff21;fill-opacity:1;stroke:#170d05;stroke-width:0;stroke-linecap:round;stroke-linejoin:round"
       id="rect2863"
       width="19.406338"
       height="25.036572"
       x="228.08437"
       y="155.2507" />
    <path
       style="fill:#f94e46;fill-opacity:1;stroke:#000000;stroke-width:1px;stroke-linecap:butt;stroke-linejoin:miter;stroke-opacity:1"
       d="m 201.1689,62.800876 c 0,0 -0.93177,-6.86117 4.32,-10.58823 5.25176,-3.72706 7.62353,-3.89647 9.65647,-4.32 2.03294,-0.42353 23.54823,-0.33882 23.54823,-0.33882 0,0 13.08066,1.18441 14.4,9.48706 1.27919,8.04992 0.97007,9.44334 1.10118,15.58588 0.13016,6.09743 -0.33882,17.70352 -2.54118,20.49882 -2.20235,2.79529 -3.38823,5.8447 -10.58823,5.92941 -7.2,0.0847 -26.25882,-0.0847 -26.25882,-0.0847 0,0 -12.19765,0.33883 -13.21412,-8.64 -1.01647,-8.97882 -0.42353,-21.85412 -0.42353,-21.85412 z"
       id="path2859-1"
       sodipodi:nodetypes="csscsssscscc" />
    <rect
       style="opacity:0.596774;fill:#fbff21;fill-opacity:1;stroke:#170d05;stroke-width:0;stroke-linecap:round;stroke-linejoin:round"
       id="rect2861-0"
       width="21.442804"
       height="25.276155"
       x="206.68611"
       y="61.649426" />
    <rect
       style="opacity:0.596774;fill:#fbff21;fill-opacity:1;stroke:#170d05;stroke-width:0;stroke-linecap:round;stroke-linejoin:round"
       id="rect2863-6"
       width="19.406338"
       height="25.036572"
       x="229.68622"
       y="61.769222" />
    <path
       style="fill:#f94e46;fill-opacity:1;stroke:#000000;stroke-width:1px;stroke-linecap:butt;stroke-linejoin:miter;stroke-opacity:1"
       d="m 117.79353,15.842326 c 0,0 -0.93177,-6.8611693 4.32,-10.5882293 5.25176,-3.72706 7.62353,-3.89647 9.65647,-4.31999996 2.03294,-0.42353 23.54823,-0.33882 23.54823,-0.33882 0,0 13.08066,1.18440996 14.4,9.48706026 1.27919,8.049919 0.97007,9.443339 1.10118,15.585879 0.13016,6.09743 -0.33882,17.703518 -2.54118,20.498818 -2.20235,2.79529 -3.38823,5.8447 -10.58823,5.92941 -7.2,0.0847 -26.25882,-0.0847 -26.25882,-0.0847 0,0 -12.19765,0.33883 -13.21412,-8.64 -1.01647,-8.97882 -0.42353,-21.854118 -0.42353,-21.854118 z"
       id="path2859-1-5"
       sodipodi:nodetypes="csscsssscscc" />
    <rect
       style="opacity:0.596774;fill:#fbff21;fill-opacity:1;stroke:#170d05;stroke-width:0;stroke-linecap:round;stroke-linejoin:round"
       id="rect2861-0-5"
       width="21.442804"
       height="25.276155"
       x="123.31074"
       y="14.690877" />
    <rect
       style="opacity:0.596774;fill:#fbff21;fill-opacity:1;stroke:#170d05;stroke-width:0;stroke-linecap:round;stroke-linejoin:round"
       id="rect2863-6-9"
       width="19.406338"
       height="25.036572"
       x="146.31085"
       y="14.810674" />
    <path
       style="fill:#f94e46;fill-opacity:1;stroke:#000000;stroke-width:1px;stroke-linecap:butt;stroke-linejoin:miter;stroke-opacity:1"
       d="m 36.334824,62.321703 c 0,0 -0.93177,-6.861169 4.32,-10.588229 5.25176,-3.72706 7.62353,-3.89647 9.65647,-4.32 2.03294,-0.42353 23.54823,-0.33882 23.54823,-0.33882 0,0 13.08066,1.18441 14.4,9.48706 1.27919,8.049919 0.97007,9.443339 1.10118,15.585879 0.13016,6.09743 -0.33882,17.703518 -2.54118,20.498818 -2.20235,2.79529 -3.38823,5.8447 -10.58823,5.92941 -7.2,0.0847 -26.25882,-0.0847 -26.25882,-0.0847 0,0 -12.19765,0.33883 -13.21412,-8.64 -1.01647,-8.97882 -0.42353,-21.854118 -0.42353,-21.854118 z"
       id="path2859-1-5-3"
       sodipodi:nodetypes="csscsssscscc" />
    <rect
       style="opacity:0.596774;fill:#fbff21;fill-opacity:1;stroke:#170d05;stroke-width:0;stroke-linecap:round;stroke-linejoin:round"
       id="rect2861-0-5-7"
       width="21.442804"
       height="25.276155"
       x="41.852032"
       y="61.170254" />
    <rect
       style="opacity:0.596774;fill:#fbff21;fill-opacity:1;stroke:#170d05;stroke-width:0;stroke-linecap:round;stroke-linejoin:round"
       id="rect2863-6-9-5"
       width="19.406338"
       height="25.036572"
       x="64.852142"
       y="61.290051" />
    <path
       style="fill:#f94e46;fill-opacity:1;stroke:#000000;stroke-width:1px;stroke-linecap:butt;stroke-linejoin:miter;stroke-opacity:1"
       d="m 38.251494,155.28046 c 0,0 -0.93177,-6.86117 4.32,-10.58823 5.25176,-3.72706 7.62353,-3.89647 9.65647,-4.32 2.03294,-0.42353 23.54823,-0.33882 23.54823,-0.33882 0,0 13.08066,1.18441 14.4,9.48706 1.27919,8.04992 0.97007,9.44334 1.10118,15.58588 0.13016,6.09743 -0.33882,17.70352 -2.54118,20.49882 -2.20235,2.79529 -3.38823,5.8447 -10.58823,5.92941 -7.2,0.0847 -26.25882,-0.0847 -26.25882,-0.0847 0,0 -12.19765,0.33883 -13.21412,-8.64 -1.01647,-8.97883 -0.42353,-21.85412 -0.42353,-21.85412 z"
       id="path2859-1-5-3-9"
       sodipodi:nodetypes="csscsssscscc" />
    <rect
       style="opacity:0.596774;fill:#fbff21;fill-opacity:1;stroke:#170d05;stroke-width:0;stroke-linecap:round;stroke-linejoin:round"
       id="rect2861-0-5-7-1"
       width="21.442804"
       height="25.276155"
       x="43.768703"
       y="154.12901" />
    <rect
       style="opacity:0.596774;fill:#fbff21;fill-opacity:1;stroke:#170d05;stroke-width:0;stroke-linecap:round;stroke-linejoin:round"
       id="rect2863-6-9-5-4"
       width="19.406338"
       height="25.036572"
       x="66.768814"
       y="154.24881" />
    <path
       style="fill:#f94e46;fill-opacity:1;stroke:#000000;stroke-width:1px;stroke-linecap:butt;stroke-linejoin:miter;stroke-opacity:1"
       d="m 116.83519,200.32232 c 0,0 -0.93177,-6.86117 4.32,-10.58823 5.25176,-3.72706 7.62353,-3.89647 9.65647,-4.32 2.03294,-0.42353 23.54823,-0.33882 23.54823,-0.33882 0,0 13.08066,1.18441 14.4,9.48706 1.27919,8.04992 0.97007,9.44334 1.10118,15.58588 0.13016,6.09743 -0.33882,17.70352 -2.54118,20.49882 -2.20235,2.79529 -3.38823,5.8447 -10.58823,5.92941 -7.2,0.0847 -26.25882,-0.0847 -26.25882,-0.0847 0,0 -12.19765,0.33883 -13.21412,-8.64 -1.01647,-8.97883 -0.42353,-21.85412 -0.42353,-21.85412 z"
       id="path2859-1-5-3-9-1"
       sodipodi:nodetypes="csscsssscscc" />
    <rect
       style="opacity:0.596774;fill:#fbff21;fill-opacity:1;stroke:#170d05;stroke-width:0;stroke-linecap:round;stroke-linejoin:round"
       id="rect2861-0-5-7-1-1"
       width="21.442804"
       height="25.276155"
       x="122.35239"
       y="199.17088" />
    <rect
       style="opacity:0.596774;fill:#fbff21;fill-opacity:1;stroke:#170d05;stroke-width:0;stroke-linecap:round;stroke-linejoin:round"
       id="rect2863-6-9-5-4-6"
       width="19.406338"
       height="25.036572"
       x="145.35249"
       y="199.29068" />
    <path
       style="fill:none;stroke:#000000;stroke-width:3.19;stroke-linecap:butt;stroke-linejoin:miter;stroke-opacity:1;stroke-miterlimit:4;stroke-dasharray:none"
       d="M 88.162513,256.35714 133.26912,146.45693"
       id="path2970" />
    <path
       style="fill:none;stroke:#000000;stroke-width:3.904;stroke-linecap:butt;stroke-linejoin:miter;stroke-opacity:1;stroke-miterlimit:4;stroke-dasharray:none"
       d="M 201.72834,256.83379 156.99971,145.72366"
       id="path2972" />
    <rect
       style="opacity:1;fill:#fbb830;fill-opacity:1;stroke:#170d05;stroke-width:0;stroke-linecap:round;stroke-linejoin:round;stroke-miterlimit:4;stroke-dasharray:none"
       id="rect2974"
       width="142.79231"
       height="14.375065"
       x="70.916985"
       y="255.87616" />
    <path
       style="fill:#2a1fff;stroke:#000000;stroke-width:0;stroke-linecap:butt;stroke-linejoin:miter;stroke-opacity:1;fill-opacity:1;stroke-miterlimit:4;stroke-dasharray:none"
       d="m 70.916985,270.25122 -4.312518,16.77091 152.854853,-0.47917 -5.75003,-16.29174 z"
       id="path2976" />
  </g>
</svg>
