<?xml version="1.0" encoding="UTF-8" standalone="no"?>
<svg
   xmlns:dc="http://purl.org/dc/elements/1.1/"
   xmlns:cc="http://creativecommons.org/ns#"
   xmlns:rdf="http://www.w3.org/1999/02/22-rdf-syntax-ns#"
   xmlns:svg="http://www.w3.org/2000/svg"
   xmlns="http://www.w3.org/2000/svg"
   xmlns:sodipodi="http://sodipodi.sourceforge.net/DTD/sodipodi-0.dtd"
   xmlns:inkscape="http://www.inkscape.org/namespaces/inkscape"
   version="1.1"
   id="svg833"
   width="1189mm"
   height="841mm"
   viewBox="0 0 4493.8583 3178.5827"
   sodipodi:docname="land.svg"
   inkscape:version="1.0.1 (3bc2e813f5, 2020-09-07)">
  <metadata
     id="metadata839">
    <rdf:RDF>
      <cc:Work
         rdf:about="">
        <dc:format>image/svg+xml</dc:format>
        <dc:type
           rdf:resource="http://purl.org/dc/dcmitype/StillImage" />
        <dc:title></dc:title>
      </cc:Work>
    </rdf:RDF>
  </metadata>
  <defs
     id="defs837" />
  <sodipodi:namedview
     pagecolor="#ffffff"
     bordercolor="#666666"
     borderopacity="1"
     objecttolerance="10"
     gridtolerance="10"
     guidetolerance="10"
     inkscape:pageopacity="0"
     inkscape:pageshadow="2"
     inkscape:window-width="1920"
     inkscape:window-height="1017"
     id="namedview835"
     showgrid="false"
     inkscape:zoom="0.13638179"
     inkscape:cx="1715.8407"
     inkscape:cy="1561.1888"
     inkscape:window-x="-8"
     inkscape:window-y="-8"
     inkscape:window-maximized="1"
     inkscape:current-layer="g841"
     units="mm"
     inkscape:document-rotation="0" />
  <g
     inkscape:groupmode="layer"
     inkscape:label="Image"
     id="g841">
    <path
       style="fill:#a4dc83;fill-opacity:1;stroke:#a4dc83;stroke-width:7.64471px;stroke-linecap:butt;stroke-linejoin:miter;stroke-opacity:1"
       d="m -7.3490153,2819.7064 c 0,0 889.8894753,-525.2778 1252.3512153,-554.3307 362.4614,-29.0531 959.5935,-29.0531 1352.2602,169.0357 392.6666,198.0888 952.6235,742.1726 952.6235,742.1726 L -7.3490153,3170.8148 Z"
       id="path845" />
    <path
       style="fill:#fcda52;fill-opacity:1;stroke:#fcda52;stroke-width:7.62088px;stroke-linecap:butt;stroke-linejoin:miter;stroke-opacity:1"
       d="m 1988.066,2276.7473 c 0,0 775.3875,-681.005 1193.6119,-717.7513 418.2252,-36.7465 556.4092,-4.5035 821.2849,79.4883 264.8756,83.9918 497.2224,215.229 497.2224,215.229 l -19.0158,1317.1375 -931.2835,5.7332 c 0,0 -394.9902,-356.9652 -557.6331,-482.9528 -162.6434,-125.9878 -846.1907,-458.8798 -1004.1868,-416.8839 z"
       id="path847"
       sodipodi:nodetypes="csscccsc" />
    <path
       style="fill:#ffb556;fill-opacity:1;stroke:#000000;stroke-width:7.62088px;stroke-linecap:butt;stroke-linejoin:miter;stroke-opacity:1"
       d="m 1930.4262,2257.9238 c 0,0 -55.7634,-251.9754 116.1735,-409.4599 171.9369,-157.4847 343.8737,-115.4888 343.8737,-115.4888 0,0 130.1145,34.1217 157.9961,62.9939 27.8817,28.8723 118.497,70.8681 155.6725,196.8557 37.1756,125.9877 55.7633,272.9734 32.5287,325.4682 -23.2346,52.4948 504.1931,215.229 504.1931,215.229 0,0 181.1743,-372.0119 -2.3234,-766.4251 -173.3591,-372.6214 -471.6643,-582.693 -652.8953,-614.1899 -181.2309,-31.4969 -439.1361,-65.6185 -576.2209,15.7484 -137.0848,81.3671 -408.9311,236.227 -492.5761,406.8352 -83.6448,170.6084 -104.5562,183.7322 -144.0551,383.2125 -39.499,199.4805 -30.2051,314.9693 -30.2051,314.9693 z"
       id="path1437"
       sodipodi:nodetypes="cscssscssssscc" />
    <path
       style="fill:#b44c2f;fill-opacity:1;stroke:#000000;stroke-width:7.62088px;stroke-linecap:butt;stroke-linejoin:miter;stroke-opacity:1"
       d="m 1351.8817,2082.066 c 0,0 62.7337,52.4948 78.998,13.1237 16.2644,-39.3711 2.3236,-62.9939 78.9981,13.1237 76.6746,76.1175 151.0256,76.1175 171.9368,44.6207 20.9113,-31.4968 37.1756,-70.8681 55.7633,-196.8558 18.5879,-125.9877 30.2054,-118.1135 92.9389,-133.8619 62.7339,-15.7484 72.0276,20.998 116.1736,2.6249 44.1461,-18.3733 97.5859,-118.1136 120.8205,-173.2331 23.2348,-55.1197 123.1441,-154.86 195.1716,-133.862 72.0277,20.998 139.4083,20.998 192.8482,104.9898 53.4398,83.9917 76.6745,146.9855 176.584,144.3608 99.9091,-2.6247 141.7316,-81.367 204.4655,-28.8722 62.7334,52.4948 62.7334,110.2393 48.7928,209.9794 -13.9409,99.7403 -34.8522,217.8538 27.8816,241.4765 62.7336,23.6226 95.2621,23.6226 153.3489,13.1237 58.0869,-10.4991 92.9388,-44.6207 134.7614,7.8743 41.8226,52.4947 114.5793,12.1364 114.5793,12.1364 12.1385,27.9897 20.2865,-271.3841 -99.8403,-503.3355 -99.7404,-192.588 -258.8689,-383.1966 -476.4533,-508.5369 -208.7025,-120.224 -540.2868,-106.305 -635.8187,-85.3747 -76.75,16.8153 -309.6901,172.6359 -412.9597,236.378 -39.348,24.2874 -247.6153,284.7303 -283.6478,433.6284 -39.2419,162.161 -56.0047,287.115 -55.3427,286.4918 z"
       id="path1439"
       sodipodi:nodetypes="cssssssssssssssscsssssc" />
    <rect
       style="fill:#ffb556;fill-opacity:1;stroke:#fcda52;stroke-width:10.5132;stroke-linecap:round;stroke-linejoin:round;stroke-opacity:1"
       id="rect1441"
       width="141.29306"
       height="11.135841"
       x="1698.0253"
       y="1600.6971" />
    <rect
       style="fill:#ffb556;fill-opacity:1;stroke:#fcda52;stroke-width:10.5449;stroke-linecap:round;stroke-linejoin:round;stroke-opacity:1"
       id="rect1446"
       width="17.056316"
       height="89.92662"
       x="2409.3479"
       y="-55.226147"
       transform="matrix(0.81641619,0.57746394,-0.48477745,0.87463754,0,0)" />
    <rect
       style="fill:#ffb556;fill-opacity:1;stroke:#fcda52;stroke-width:10.5132;stroke-linecap:round;stroke-linejoin:round;stroke-opacity:1"
       id="rect1448"
       width="78.861237"
       height="14.847789"
       x="2374.9172"
       y="1351.9966" />
    <rect
       style="fill:#ffb556;fill-opacity:1;stroke:#fcda52;stroke-width:17.4268;stroke-linecap:round;stroke-linejoin:round;stroke-opacity:1"
       id="rect1450"
       width="9.9246759"
       height="111.43414"
       x="2256.5923"
       y="1181.2091" />
    <rect
       style="fill:#ffb556;fill-opacity:1;stroke:#fcda52;stroke-width:10.5132;stroke-linecap:round;stroke-linejoin:round;stroke-opacity:1"
       id="rect1452"
       width="62.431812"
       height="18.559734"
       x="2154.7632"
       y="1429.9474" />
    <rect
       style="fill:#ffb556;fill-opacity:1;stroke:#fcda52;stroke-width:10.5132;stroke-linecap:round;stroke-linejoin:round;stroke-opacity:1"
       id="rect1460"
       width="23.001192"
       height="100.22256"
       x="2595.0718"
       y="1515.3221" />
    <rect
       style="fill:#ffb556;fill-opacity:1;stroke:#fcda52;stroke-width:10.5132;stroke-linecap:round;stroke-linejoin:round;stroke-opacity:1"
       id="rect1462"
       width="62.431812"
       height="22.271683"
       x="2782.3669"
       y="1400.2518" />
    <rect
       style="fill:#ffb556;fill-opacity:1;stroke:#fcda52;stroke-width:10.5132;stroke-linecap:round;stroke-linejoin:round;stroke-opacity:1"
       id="rect1464"
       width="65.717682"
       height="18.559734"
       x="2864.5149"
       y="1559.8655" />
    <rect
       style="fill:#ffb556;fill-opacity:1;stroke:#fcda52;stroke-width:10.5132;stroke-linecap:round;stroke-linejoin:round;stroke-opacity:1"
       id="rect1466"
       width="16.42942"
       height="111.35843"
       x="3051.8098"
       y="1745.463" />
    <rect
       style="fill:#ffb556;fill-opacity:1;stroke:#fcda52;stroke-width:10.5132;stroke-linecap:round;stroke-linejoin:round;stroke-opacity:1"
       id="rect1468"
       width="16.42942"
       height="100.22256"
       x="2976.2341"
       y="1938.484" />
    <rect
       style="fill:#ffb556;fill-opacity:1;stroke:#fcda52;stroke-width:10.5132;stroke-linecap:round;stroke-linejoin:round;stroke-opacity:1"
       id="rect1470"
       width="98.576546"
       height="18.559734"
       x="3097.812"
       y="2027.5709" />
    <rect
       style="fill:#ffb556;fill-opacity:1;stroke:#fcda52;stroke-width:10.5253;stroke-linecap:round;stroke-linejoin:round;stroke-opacity:1"
       id="rect1472"
       width="99.711838"
       height="11.034304"
       x="981.70593"
       y="2225.7122"
       transform="matrix(0.94623742,-0.32347294,0.2587559,0.96594274,0,0)"
       inkscape:transform-center-x="-23.001103"
       inkscape:transform-center-y="-29.695787" />
    <rect
       style="fill:#ffb556;fill-opacity:1;stroke:#fcda52;stroke-width:12.8996;stroke-linecap:round;stroke-linejoin:round;stroke-opacity:1"
       id="rect1474"
       width="22.749483"
       height="96.860542"
       x="966.49384"
       y="2726.9216"
       transform="matrix(0.76517493,-0.64382244,0.31854224,0.94790867,0,0)" />
  </g>
</svg>
