<?xml version="1.0" encoding="UTF-8" standalone="no"?>
<svg
   xmlns:dc="http://purl.org/dc/elements/1.1/"
   xmlns:cc="http://creativecommons.org/ns#"
   xmlns:rdf="http://www.w3.org/1999/02/22-rdf-syntax-ns#"
   xmlns:svg="http://www.w3.org/2000/svg"
   xmlns="http://www.w3.org/2000/svg"
   xmlns:sodipodi="http://sodipodi.sourceforge.net/DTD/sodipodi-0.dtd"
   xmlns:inkscape="http://www.inkscape.org/namespaces/inkscape"
   width="1189mm"
   height="841mm"
   viewBox="0 0 1189 841"
   version="1.1"
   id="svg2140"
   sodipodi:docname="fdrip2.svg"
   inkscape:version="1.0.1 (3bc2e813f5, 2020-09-07)">
  <defs
     id="defs2134" />
  <sodipodi:namedview
     id="base"
     pagecolor="#ffffff"
     bordercolor="#666666"
     borderopacity="1.0"
     inkscape:pageopacity="0.0"
     inkscape:pageshadow="2"
     inkscape:zoom="0.175"
     inkscape:cx="2020.4272"
     inkscape:cy="1348.0245"
     inkscape:document-units="mm"
     inkscape:current-layer="layer1"
     inkscape:document-rotation="0"
     showgrid="false"
     inkscape:window-width="1920"
     inkscape:window-height="1017"
     inkscape:window-x="-8"
     inkscape:window-y="-8"
     inkscape:window-maximized="1" />
  <metadata
     id="metadata2137">
    <rdf:RDF>
      <cc:Work
         rdf:about="">
        <dc:format>image/svg+xml</dc:format>
        <dc:type
           rdf:resource="http://purl.org/dc/dcmitype/StillImage" />
        <dc:title></dc:title>
      </cc:Work>
    </rdf:RDF>
  </metadata>
  <g
     inkscape:label="Layer 1"
     inkscape:groupmode="layer"
     id="layer1">
    <path
       style="fill:#a4dc83;fill-opacity:1;stroke:#a4dc83;stroke-width:2.02266px;stroke-linecap:butt;stroke-linejoin:miter;stroke-opacity:1"
       d="m 1192.0025,748.74056 c 0,0 -235.44996,-138.97975 -331.3513,-146.66667 -95.90124,-7.68696 -253.89245,-7.68696 -357.78551,44.72403 -103.89303,52.411 -252.04833,196.3665 -252.04833,196.3665 l 941.18514,-1.52643 z"
       id="path845" />
    <path
       style="fill:#fcda52;fill-opacity:1;stroke:#fcda52;stroke-width:2.01636px;stroke-linecap:butt;stroke-linejoin:miter;stroke-opacity:1"
       d="m 664.0489,605.08263 c 0,0 -205.1546,-180.18257 -315.80984,-189.90503 -110.6554,-9.72251 -147.2166,-1.19155 -217.29833,21.03128 C 60.859033,458.43171 -0.61606685,493.15489 -0.61606685,493.15489 L 4.4152331,841.64751 250.81736,843.16442 c 0,0 104.5079,-94.44704 147.5405,-127.78126 43.0327,-33.33427 223.88791,-121.41195 265.69104,-110.30053 z"
       id="path847"
       sodipodi:nodetypes="csscccsc" />
    <path
       style="fill:#ffb556;fill-opacity:1;stroke:#000000;stroke-width:2.01636px;stroke-linecap:butt;stroke-linejoin:miter;stroke-opacity:1"
       d="m 512.08159,600.10224 c 0,0 -14.75406,-66.66848 30.73758,-108.33626 45.49163,-41.66782 90.98325,-30.55641 90.98325,-30.55641 0,0 34.42612,9.02804 41.80313,16.66714 7.37703,7.63913 31.35233,18.75052 41.18835,52.08474 9.83604,33.33424 14.75404,72.2242 8.60655,86.11345 -6.14749,13.88925 133.40112,56.94601 133.40112,56.94601 0,0 47.9357,-98.42815 -0.6148,-202.7833 C 812.31887,371.6482 733.3923,316.06675 685.4416,307.7332 637.49092,299.39965 569.2535,290.37164 532.98315,311.89996 496.7128,333.42834 424.7868,374.40169 402.65572,419.54177 c -22.13102,45.14014 -27.66383,48.61248 -38.11458,101.39164 -10.45077,52.77921 -7.99176,83.33562 -7.99176,83.33562 z"
       id="path1437"
       sodipodi:nodetypes="cscssscssssscc" />
    <path
       style="fill:#b44c2f;fill-opacity:1;stroke:#000000;stroke-width:2.01636px;stroke-linecap:butt;stroke-linejoin:miter;stroke-opacity:1"
       d="m 359.00836,553.57321 c 0,0 16.59829,13.88924 20.90156,3.47231 4.30329,-10.41694 0.61478,-16.66714 20.90158,3.47231 20.28682,20.13942 39.95885,20.13942 45.49161,11.80589 5.53278,-8.33353 9.83604,-18.75051 14.75404,-52.08476 4.91805,-33.33424 7.99184,-31.25086 24.59008,-35.41763 16.59835,-4.16676 19.05731,5.55572 30.7376,0.69451 11.68032,-4.86127 25.8196,-31.25089 31.96709,-45.83459 6.14754,-14.58376 32.58188,-40.97338 51.63915,-35.41766 19.05733,5.55572 36.88512,5.55572 51.02442,27.77855 14.13928,22.22281 20.2868,38.88992 46.72119,38.19547 26.43428,-0.69446 37.49979,-21.52836 54.09819,-7.63911 16.5982,13.88925 16.5982,29.16748 12.9097,55.55705 -3.6885,26.38962 -9.2213,57.64048 7.377,63.89065 16.5983,6.25015 25.2048,6.25015 40.5736,3.47232 15.3688,-2.77789 24.5901,-11.8059 35.6556,2.08341 11.0656,13.88922 30.3158,3.21108 30.3158,3.21108 3.2116,7.40561 5.3675,-71.8037 -26.4161,-133.17417 C 825.86087,406.68326 783.75807,356.2514 726.18888,323.08845 670.96968,291.27919 583.238,294.96192 557.96185,300.49973 c -20.30677,4.44905 -81.93884,45.67658 -109.26225,62.54168 -10.41083,6.42604 -65.51488,75.33489 -75.04848,114.73084 -10.38275,42.9051 -14.81791,75.96584 -14.64276,75.80096 z"
       id="path1439"
       sodipodi:nodetypes="cssssssssssssssscsssssc" />
    <rect
       style="fill:#ffb556;fill-opacity:1;stroke:#fcda52;stroke-width:2.78162;stroke-linecap:round;stroke-linejoin:round;stroke-opacity:1"
       id="rect1441"
       width="37.383789"
       height="2.946358"
       x="-740.78888"
       y="426.21103"
       transform="scale(-1,1)" />
    <rect
       style="fill:#ffb556;fill-opacity:1;stroke:#fcda52;stroke-width:2.79;stroke-linecap:round;stroke-linejoin:round;stroke-opacity:1"
       id="rect1446"
       width="4.5128169"
       height="23.793085"
       x="-408.35532"
       y="678.95715"
       transform="matrix(-0.81641619,0.57746394,0.48477745,0.87463754,0,0)" />
    <rect
       style="fill:#ffb556;fill-opacity:1;stroke:#fcda52;stroke-width:2.78162;stroke-linecap:round;stroke-linejoin:round;stroke-opacity:1"
       id="rect1448"
       width="20.865368"
       height="3.9284775"
       x="-561.69452"
       y="360.409"
       transform="scale(-1,1)" />
    <rect
       style="fill:#ffb556;fill-opacity:1;stroke:#fcda52;stroke-width:4.61084;stroke-linecap:round;stroke-linejoin:round;stroke-opacity:1"
       id="rect1450"
       width="2.6259038"
       height="29.483618"
       x="-593.00134"
       y="315.2215"
       transform="scale(-1,1)" />
    <rect
       style="fill:#ffb556;fill-opacity:1;stroke:#fcda52;stroke-width:2.78162;stroke-linecap:round;stroke-linejoin:round;stroke-opacity:1"
       id="rect1452"
       width="16.518417"
       height="4.9105964"
       x="-619.9436"
       y="381.03348"
       transform="scale(-1,1)" />
    <rect
       style="fill:#ffb556;fill-opacity:1;stroke:#fcda52;stroke-width:2.78162;stroke-linecap:round;stroke-linejoin:round;stroke-opacity:1"
       id="rect1460"
       width="6.085732"
       height="26.517218"
       x="-503.44531"
       y="403.62222"
       transform="scale(-1,1)" />
    <rect
       style="fill:#ffb556;fill-opacity:1;stroke:#fcda52;stroke-width:2.78162;stroke-linecap:round;stroke-linejoin:round;stroke-opacity:1"
       id="rect1462"
       width="16.518417"
       height="5.8927159"
       x="-453.89014"
       y="373.17654"
       transform="scale(-1,1)" />
    <rect
       style="fill:#ffb556;fill-opacity:1;stroke:#fcda52;stroke-width:2.78162;stroke-linecap:round;stroke-linejoin:round;stroke-opacity:1"
       id="rect1464"
       width="17.387804"
       height="4.9105964"
       x="-432.15521"
       y="415.40765"
       transform="scale(-1,1)" />
    <rect
       style="fill:#ffb556;fill-opacity:1;stroke:#fcda52;stroke-width:2.78162;stroke-linecap:round;stroke-linejoin:round;stroke-opacity:1"
       id="rect1466"
       width="4.346951"
       height="29.463585"
       x="-382.60004"
       y="464.51367"
       transform="scale(-1,1)" />
    <rect
       style="fill:#ffb556;fill-opacity:1;stroke:#fcda52;stroke-width:2.78162;stroke-linecap:round;stroke-linejoin:round;stroke-opacity:1"
       id="rect1468"
       width="4.346951"
       height="26.517218"
       x="-402.59613"
       y="515.5838"
       transform="scale(-1,1)" />
    <rect
       style="fill:#ffb556;fill-opacity:1;stroke:#fcda52;stroke-width:2.78162;stroke-linecap:round;stroke-linejoin:round;stroke-opacity:1"
       id="rect1470"
       width="26.081711"
       height="4.9105964"
       x="-370.42865"
       y="539.15472"
       transform="scale(-1,1)" />
    <rect
       style="fill:#ffb556;fill-opacity:1;stroke:#fcda52;stroke-width:2.78482;stroke-linecap:round;stroke-linejoin:round;stroke-opacity:1"
       id="rect1472"
       width="26.38209"
       height="2.9194927"
       x="-893.11993"
       y="205.60622"
       transform="matrix(-0.94623742,-0.32347294,-0.2587559,0.96594274,0,0)"
       inkscape:transform-center-x="23.001111"
       inkscape:transform-center-y="-29.695792" />
    <rect
       style="fill:#ffb556;fill-opacity:1;stroke:#fcda52;stroke-width:3.41302;stroke-linecap:round;stroke-linejoin:round;stroke-opacity:1"
       id="rect1474"
       width="6.019134"
       height="25.627686"
       x="-957.65625"
       y="-99.788284"
       transform="matrix(-0.76517493,-0.64382244,-0.31854224,0.94790867,0,0)" />
  </g>
</svg>
