<?xml version="1.0" encoding="UTF-8" standalone="no"?>
<svg
   xmlns:dc="http://purl.org/dc/elements/1.1/"
   xmlns:cc="http://creativecommons.org/ns#"
   xmlns:rdf="http://www.w3.org/1999/02/22-rdf-syntax-ns#"
   xmlns:svg="http://www.w3.org/2000/svg"
   xmlns="http://www.w3.org/2000/svg"
   xmlns:sodipodi="http://sodipodi.sourceforge.net/DTD/sodipodi-0.dtd"
   xmlns:inkscape="http://www.inkscape.org/namespaces/inkscape"
   version="1.1"
   id="svg887"
   width="74mm"
   height="105mm"
   viewBox="0 0 279.68503 396.85039"
   sodipodi:docname="lollipop.svg"
   inkscape:version="1.0.1 (3bc2e813f5, 2020-09-07)">
  <metadata
     id="metadata893">
    <rdf:RDF>
      <cc:Work
         rdf:about="">
        <dc:format>image/svg+xml</dc:format>
        <dc:type
           rdf:resource="http://purl.org/dc/dcmitype/StillImage" />
        <dc:title></dc:title>
      </cc:Work>
    </rdf:RDF>
  </metadata>
  <defs
     id="defs891" />
  <sodipodi:namedview
     pagecolor="#ffffff"
     bordercolor="#666666"
     borderopacity="1"
     objecttolerance="10"
     gridtolerance="10"
     guidetolerance="10"
     inkscape:pageopacity="0"
     inkscape:pageshadow="2"
     inkscape:window-width="1920"
     inkscape:window-height="1017"
     id="namedview889"
     showgrid="false"
     units="mm"
     inkscape:zoom="1.4142136"
     inkscape:cx="256.08499"
     inkscape:cy="219.72287"
     inkscape:window-x="-8"
     inkscape:window-y="-8"
     inkscape:window-maximized="1"
     inkscape:current-layer="g895" />
  <g
     inkscape:groupmode="layer"
     inkscape:label="Image"
     id="g895">
    <path
       style="fill:#bcb9f9;fill-opacity:1;stroke:#000000;stroke-width:0;stroke-linecap:butt;stroke-linejoin:miter;stroke-miterlimit:4;stroke-dasharray:none;stroke-opacity:1"
       d="m 90.646136,146.33012 9.567764,179.47539 c 0,0 7.31652,-4.58722 15.75864,-5.73404 8.44214,-1.14681 4.64319,-0.71675 4.64319,-0.71675 L 110.72487,142.7192 c 0,0 -9.11613,6.00547 -20.078734,3.61092 z"
       id="path3467" />
    <ellipse
       style="opacity:0.935484;fill:#f6fefe;fill-opacity:1;stroke:#e9788a;stroke-width:0;stroke-linecap:round;stroke-linejoin:round;stroke-miterlimit:4;stroke-dasharray:none;stroke-opacity:1"
       id="path3469"
       cx="90.627579"
       cy="77.491463"
       rx="76.912033"
       ry="71.53167" />
    <path
       sodipodi:type="spiral"
       style="fill:none;fill-rule:evenodd;stroke:#ea503a;stroke-width:1.81195;stroke-miterlimit:4;stroke-dasharray:none;stroke-opacity:1"
       id="path3483"
       sodipodi:cx="424.3313"
       sodipodi:cy="143.55881"
       sodipodi:expansion="1"
       sodipodi:revolution="3.4330399"
       sodipodi:radius="45.859222"
       sodipodi:argument="-21.204908"
       sodipodi:t0="0"
       d="m 424.3313,143.55881 c -1.41958,-1.42197 1.21642,-2.61511 2.3634,-2.35943 3.10827,0.69288 3.60469,4.67535 2.35546,7.08624 -2.23459,4.31252 -8.0283,4.81307 -11.80908,2.35147 -5.54844,-3.61249 -6.05732,-11.42675 -2.3475,-16.5319 4.94461,-6.80438 14.84136,-7.31685 21.25475,-2.34353 8.07059,6.25843 8.58428,18.26366 2.33954,25.97758 -7.56322,9.34259 -21.6903,9.8563 -30.70041,2.33557 -10.6181,-8.86293 -11.13119,-25.11965 -2.33159,-35.42325 10.15948,-11.8959 28.5508,-12.40799 40.14608,-2.32761 13.17529,11.45397 13.68614,31.98322 2.32364,44.86891 -12.74702,14.4558 -35.41657,14.96526 -49.59175,2.31966 -15.73714,-14.03901 -16.24511,-38.8506 -2.31568,-54.31458 15.33024,-17.01911 42.28517,-17.525519 59.03741,-2.3117 12.93565,11.74772 17.56599,30.54165 12.10544,47.06415"
       transform="matrix(1.5198883,0,0,1.4563467,-557.54179,-127.56833)" />
    <path
       style="fill:#ed8194;fill-opacity:1;stroke:#000000;stroke-width:0;stroke-linecap:butt;stroke-linejoin:miter;stroke-miterlimit:4;stroke-dasharray:none;stroke-opacity:1"
       d="m 169.62388,187.13216 -31.04137,132.04906 15.5207,7.60282 31.04135,-136.85086 c 0,0 -9.15322,2.40091 -13.13288,-0.80028 -3.97965,-3.2012 -2.3878,-2.00074 -2.3878,-2.00074 z"
       id="path3485" />
    <ellipse
       style="opacity:1;fill:#fff4b3;fill-opacity:1;stroke:#e9788a;stroke-width:0;stroke-linecap:round;stroke-linejoin:round;stroke-miterlimit:4;stroke-dasharray:none;stroke-opacity:1"
       id="path3487"
       cx="193.76909"
       cy="125.7194"
       rx="65.445129"
       ry="66.945885" />
    <path
       style="fill:#ea503a;fill-opacity:1;stroke:#000000;stroke-width:0;stroke-linecap:butt;stroke-linejoin:miter;stroke-miterlimit:4;stroke-dasharray:none;stroke-opacity:1"
       d="m 187.93033,73.089787 c 0,0 -0.79593,3.801415 -0.79593,13.805129 0,10.00371 2.78577,32.812204 4.57661,35.613234 1.79086,2.80102 1.59186,1.60058 1.59186,1.60058 0,0 -0.19898,-21.8081 15.5207,-34.612856 15.71965,-12.804745 23.28101,-19.007059 23.28101,-19.007059 0,0 -27.45966,-16.206012 -36.01594,-10.603935 -8.55628,5.602079 -8.15831,13.204907 -8.15831,13.204907 z"
       id="path3489"
       sodipodi:nodetypes="csscscsc" />
    <path
       style="fill:#ea503a;fill-opacity:1;stroke:#000000;stroke-width:0;stroke-linecap:butt;stroke-linejoin:miter;stroke-miterlimit:4;stroke-dasharray:none;stroke-opacity:1"
       d="m 236.3459,95.624968 c 0,0 -3.74442,1.126375 -12.57824,5.937032 -8.83377,4.81069 -27.61821,18.23491 -29.21956,21.16068 -1.60136,2.92579 -0.63815,2.17308 -0.63815,2.17308 0,0 19.16077,-10.66267 38.12325,-2.962 18.96245,7.70062 28.12167,11.38404 28.12167,11.38404 0,0 0.93836,-32.00147 -8.17533,-36.850614 -9.11368,-4.849159 -15.63359,-0.842208 -15.63359,-0.842208 z"
       id="path3489-3"
       sodipodi:nodetypes="csscscsc" />
    <path
       style="fill:#ea503a;fill-opacity:1;stroke:#000000;stroke-width:0;stroke-linecap:butt;stroke-linejoin:miter;stroke-miterlimit:4;stroke-dasharray:none;stroke-opacity:1"
       d="m 235.87731,153.80266 c 0,0 -2.39583,-3.11305 -9.98085,-9.62579 -7.58499,-6.51274 -26.58153,-19.12799 -29.79995,-19.51557 -3.21844,-0.38749 -2.18656,0.23446 -2.18656,0.23446 0,0 16.65694,14.03821 16.7575,34.9795 0.10061,20.94122 0.18161,31.04228 0.18161,31.04228 0,0 29.07172,-11.46813 30.05391,-21.9762 0.98222,-10.50807 -5.02566,-15.13861 -5.02566,-15.13861 z"
       id="path3489-3-7"
       sodipodi:nodetypes="csscscsc" />
    <path
       style="opacity:1;fill:#ea503a;fill-opacity:1;stroke:#000000;stroke-width:0;stroke-linecap:butt;stroke-linejoin:miter;stroke-miterlimit:4;stroke-dasharray:none;stroke-opacity:1"
       d="m 193.87089,177.36936 c 0,0 1.06765,-3.91033 1.78025,-14.32238 0.71266,-10.41207 -0.45219,-34.31367 -2.04581,-37.3332 -1.59368,-3.01951 -1.47994,-1.75846 -1.47994,-1.75846 0,0 -1.35409,22.70994 -18.00595,35.12326 -16.65184,12.41329 -24.66464,18.42908 -24.66464,18.42908 0,0 26.34049,18.46445 35.30674,13.13127 8.96628,-5.33319 9.10931,-13.26953 9.10931,-13.26953 z"
       id="path3489-3-7-4"
       sodipodi:nodetypes="csscscsc" />
    <path
       style="fill:#ea503a;fill-opacity:1;stroke:#000000;stroke-width:0;stroke-linecap:butt;stroke-linejoin:miter;stroke-miterlimit:4;stroke-dasharray:none;stroke-opacity:1"
       d="m 146.30115,106.44068 c 0,0 3.00191,2.44557 11.8566,7.0069 8.85474,4.56137 30.31372,12.46829 33.60962,12.14288 3.29587,-0.32543 2.14258,-0.6947 2.14258,-0.6947 0,0 -19.39403,-9.76569 -23.56046,-29.671416 -4.16643,-19.905684 -6.20863,-29.500216 -6.20863,-29.500216 0,0 -26.8653,17.183663 -25.80802,27.394867 1.05727,10.211165 7.96831,13.321685 7.96831,13.321685 z"
       id="path3489-7"
       sodipodi:nodetypes="csscscsc" />
    <path
       style="fill:#ea503a;fill-opacity:1;stroke:#000000;stroke-width:0;stroke-linecap:butt;stroke-linejoin:miter;stroke-miterlimit:4;stroke-dasharray:none;stroke-opacity:1"
       d="m 153.2498,157.45174 c 0,0 3.69829,-1.40984 12.2597,-6.89868 8.56148,-5.48886 26.52434,-20.36934 27.92047,-23.42715 1.39611,-3.05781 0.47998,-2.23015 0.47998,-2.23015 0,0 -18.55275,12.13471 -38.29872,5.81023 -19.74595,-6.32445 -29.28086,-9.34297 -29.28086,-9.34297 0,0 1.48041,32.21258 11.05783,36.40543 9.57734,4.19283 15.8616,-0.31671 15.8616,-0.31671 z"
       id="path3489-7-1"
       sodipodi:nodetypes="csscscsc" />
    <ellipse
       style="opacity:1;fill:#4391ff;fill-opacity:1;stroke:#ea503a;stroke-width:0;stroke-linecap:round;stroke-linejoin:round;stroke-miterlimit:4;stroke-dasharray:none;stroke-opacity:1"
       id="path3600"
       cx="219.3051"
       cy="292.80167"
       rx="43.667122"
       ry="27.531507"
       transform="matrix(0.95785907,0.28723859,-0.27004144,0.9628487,0,0)" />
    <path
       style="fill:#f6fefe;fill-opacity:1;stroke:#4391ff;stroke-width:1.5583;stroke-linecap:butt;stroke-linejoin:miter;stroke-miterlimit:4;stroke-dasharray:none;stroke-opacity:1"
       d="m 91.209416,345.51439 -22.572554,3.04493 8.083452,-14.12085 1.477069,-20.77368 14.828599,12.98001 c 0,0 -3.293788,4.63114 -3.51367,7.03323 -0.21986,2.40207 -0.773801,1.98233 -0.590173,5.06691 0.18365,3.08456 2.287277,6.76945 2.287277,6.76945 z"
       id="path3602" />
    <path
       style="fill:#f6fefe;fill-opacity:1;stroke:#4391ff;stroke-width:1.5583;stroke-linecap:butt;stroke-linejoin:miter;stroke-miterlimit:4;stroke-dasharray:none;stroke-opacity:1"
       d="m 167.19384,366.13361 19.74946,11.40456 -2.17,-16.14615 6.44844,-19.79171 -18.61012,6.37504 c 0,0 1.30664,5.53982 0.60642,7.84705 -0.70022,2.30717 -0.0295,2.12935 -1.36003,4.91485 -1.3305,2.78546 -4.66417,5.39636 -4.66417,5.39636 z"
       id="path3602-4" />
    <ellipse
       style="opacity:1;fill:#f6fefe;fill-opacity:1;stroke:#4391ff;stroke-width:1;stroke-linecap:round;stroke-linejoin:round;stroke-miterlimit:4;stroke-dasharray:none;stroke-opacity:1"
       id="path4897"
       cx="221.34718"
       cy="294.13928"
       rx="23.334524"
       ry="14.849242"
       transform="rotate(16.264639)" />
  </g>
</svg>
