<?xml version="1.0" encoding="UTF-8" standalone="no"?>
<svg
   xmlns:dc="http://purl.org/dc/elements/1.1/"
   xmlns:cc="http://creativecommons.org/ns#"
   xmlns:rdf="http://www.w3.org/1999/02/22-rdf-syntax-ns#"
   xmlns:svg="http://www.w3.org/2000/svg"
   xmlns="http://www.w3.org/2000/svg"
   xmlns:sodipodi="http://sodipodi.sourceforge.net/DTD/sodipodi-0.dtd"
   xmlns:inkscape="http://www.inkscape.org/namespaces/inkscape"
   width="148mm"
   height="210mm"
   viewBox="0 0 148 210"
   version="1.1"
   id="svg3603"
   inkscape:version="1.0.1 (3bc2e813f5, 2020-09-07)"
   sodipodi:docname="pop.svg">
  <defs
     id="defs3597" />
  <sodipodi:namedview
     id="base"
     pagecolor="#ffffff"
     bordercolor="#666666"
     borderopacity="1.0"
     inkscape:pageopacity="0.0"
     inkscape:pageshadow="2"
     inkscape:zoom="0.70710678"
     inkscape:cx="76.635701"
     inkscape:cy="606.4201"
     inkscape:document-units="mm"
     inkscape:current-layer="layer1"
     inkscape:document-rotation="0"
     showgrid="false"
     inkscape:window-width="1267"
     inkscape:window-height="1041"
     inkscape:window-x="234"
     inkscape:window-y="0"
     inkscape:window-maximized="0" />
  <metadata
     id="metadata3600">
    <rdf:RDF>
      <cc:Work
         rdf:about="">
        <dc:format>image/svg+xml</dc:format>
        <dc:type
           rdf:resource="http://purl.org/dc/dcmitype/StillImage" />
        <dc:title></dc:title>
      </cc:Work>
    </rdf:RDF>
  </metadata>
  <g
     inkscape:label="Layer 1"
     inkscape:groupmode="layer"
     id="layer1">
    <path
       style="fill:#afe9af;stroke:#000000;stroke-width:0;stroke-linecap:butt;stroke-linejoin:miter;stroke-miterlimit:4;stroke-dasharray:none;stroke-opacity:1"
       d="m 67.076165,98.122133 c 0,0 3.347658,8.127117 6.519123,7.314407 3.171464,-0.81273 4.22861,-3.25084 5.461958,-4.87629 1.233349,-1.625435 1.585728,-1.625435 1.585728,-1.625435 V 207.83824 H 66.723777 Z"
       id="path4199" />
    <ellipse
       style="fill:#ffff00;stroke:#170d05;stroke-width:0;stroke-linecap:round;stroke-linejoin:round"
       id="path4166"
       cx="71.665558"
       cy="57.129719"
       rx="54.619598"
       ry="50.722" />
    <path
       style="fill:#37d1dc;fill-opacity:1;stroke:#000000;stroke-width:0;stroke-linecap:butt;stroke-linejoin:miter;stroke-miterlimit:4;stroke-dasharray:none;stroke-opacity:1"
       d="M 19.321288,44.273764 124.42715,44.146109 c 0,0 1.53609,3.27717 1.71087,6.988207 0.0284,0.604114 0.23526,3.329281 0.16543,3.902161 -0.13161,1.080718 -9.3e-4,2.403697 -0.0616,3.45246 -0.16909,2.922323 -0.55367,5.197257 -0.55367,5.197257 H 17.60471 c -1.112607,-0.179135 -0.678202,-18.714809 1.716578,-19.41243 z"
       id="path4170"
       sodipodi:nodetypes="ccsssccc" />
    <path
       style="fill:#37d1dc;fill-opacity:1;stroke:#000000;stroke-width:0;stroke-linecap:butt;stroke-linejoin:miter;stroke-miterlimit:4;stroke-dasharray:none;stroke-opacity:1"
       d="m 17.604709,63.686194 c 0,0 0.689657,2.286749 1.68635,3.731015 0.996694,1.444266 4.235948,3.129243 4.98347,2.166399 0.747522,-0.962844 3.239251,-4.573508 4.111364,-3.971726 0.872104,0.601772 0.249174,5.054921 2.242556,8.424865 1.993391,3.369945 2.616322,4.332788 4.485121,-0.962844 1.868809,-5.295632 9.219425,-9.026647 9.593181,-2.768171 0.373766,6.258476 4.934794,-2.793425 6.344327,-3.984885 1.409543,-1.191459 4.052425,-0.340419 4.933386,0.68083 0.880961,1.02125 2.466688,6.808328 6.342929,9.021028 3.876221,2.212709 5.461957,-2.2127 7.576258,-5.957279 2.114309,-3.744579 4.404813,0.51062 6.342928,4.76582 1.938107,4.255208 4.404804,-9.361439 8.809608,-9.531648 4.404804,-0.17021 6.166725,3.574369 9.33819,3.744579 3.171455,0.170209 5.285764,-3.914789 8.985803,-3.40416 3.70003,0.51062 2.2905,8.680608 3.52384,10.723107 1.23335,2.042491 2.2905,5.446659 4.581,3.06374 2.2905,-2.382909 1.05715,-3.574369 3.34766,-6.808318 2.29049,-3.233959 7.81842,-4.595619 9.22795,-4.2552 1.40955,0.340411 1.62753,-4.677152 1.62753,-4.677152 z"
       id="path4182"
       sodipodi:nodetypes="csssssssssssssssssscc" />
    <path
       style="fill:#37d1dc;fill-opacity:1;stroke:#000000;stroke-width:0;stroke-linecap:butt;stroke-linejoin:miter;stroke-miterlimit:4;stroke-dasharray:none;stroke-opacity:1"
       d="m 22.55149,47.123102 98.99549,-0.117496 c 0,0 1.44678,3.016397 1.61141,6.432121 0.0268,0.556039 0.22159,3.064343 0.15581,3.591634 -0.12396,0.994726 -9.3e-4,2.212421 -0.0581,3.177732 -0.15925,2.689772 -0.52149,4.78367 -0.52149,4.78367 H 20.934706 C 19.886781,64.825876 20.295932,47.765211 22.55149,47.123102 Z"
       id="path4170-1"
       sodipodi:nodetypes="ccsssccc" />
    <ellipse
       style="fill:#eeaaff;fill-opacity:1;stroke:#000000;stroke-width:0;stroke-linecap:round;stroke-linejoin:round;stroke-miterlimit:4;stroke-dasharray:none;stroke-opacity:1"
       id="path4361"
       cx="74.215622"
       cy="145.78542"
       rx="17.330208"
       ry="10.318749" />
    <path
       style="fill:#eeaaff;fill-opacity:1;stroke:#000000;stroke-width:0;stroke-linecap:butt;stroke-linejoin:miter;stroke-miterlimit:4;stroke-dasharray:none;stroke-opacity:1"
       d="m 85.440828,139.27146 22.263552,-12.34785 -10.620947,19.06423 10.433857,11.43122 -21.702283,-4.67722 c 0,0 4.115951,-3.27405 4.115951,-5.79975 0,-2.52569 0.841899,-4.0224 -1.777344,-5.89329 -2.61924,-1.87089 -2.712786,-1.77734 -2.712786,-1.77734 z"
       id="path4363"
       sodipodi:nodetypes="cccccssc" />
    <path
       style="fill:#eeaaff;fill-opacity:1;stroke:#000000;stroke-width:0;stroke-linecap:butt;stroke-linejoin:miter;stroke-miterlimit:4;stroke-dasharray:none;stroke-opacity:1"
       d="m 62.723207,139.11003 -22.263552,-12.34785 7.975113,18.0059 -7.788023,12.48955 21.702282,-4.67722 c 0,0 -4.11595,-3.27405 -4.11595,-5.79975 0,-2.52569 -0.8419,-4.0224 1.77734,-5.89329 2.61924,-1.87089 2.71279,-1.77734 2.71279,-1.77734 z"
       id="path4363-3"
       sodipodi:nodetypes="cccccssc" />
    <ellipse
       style="fill:#672178;fill-opacity:1;stroke:#000000;stroke-width:0;stroke-linecap:round;stroke-linejoin:round;stroke-miterlimit:4;stroke-dasharray:none;stroke-opacity:1"
       id="path4380"
       cx="74.514893"
       cy="145.92593"
       rx="13.475476"
       ry="6.8159046" />
  </g>
</svg>
