<?xml version="1.0" encoding="UTF-8" standalone="no"?>
<svg
   xmlns:dc="http://purl.org/dc/elements/1.1/"
   xmlns:cc="http://creativecommons.org/ns#"
   xmlns:rdf="http://www.w3.org/1999/02/22-rdf-syntax-ns#"
   xmlns:svg="http://www.w3.org/2000/svg"
   xmlns="http://www.w3.org/2000/svg"
   xmlns:sodipodi="http://sodipodi.sourceforge.net/DTD/sodipodi-0.dtd"
   xmlns:inkscape="http://www.inkscape.org/namespaces/inkscape"
   version="1.1"
   id="svg1568"
   width="74mm"
   height="105mm"
   viewBox="0 0 279.68504 396.85039"
   sodipodi:docname="ptree2.svg"
   inkscape:version="1.0.1 (3bc2e813f5, 2020-09-07)">
  <metadata
     id="metadata1574">
    <rdf:RDF>
      <cc:Work
         rdf:about="">
        <dc:format>image/svg+xml</dc:format>
        <dc:type
           rdf:resource="http://purl.org/dc/dcmitype/StillImage" />
        <dc:title></dc:title>
      </cc:Work>
    </rdf:RDF>
  </metadata>
  <defs
     id="defs1572" />
  <sodipodi:namedview
     pagecolor="#ffffff"
     bordercolor="#666666"
     borderopacity="1"
     objecttolerance="10"
     gridtolerance="10"
     guidetolerance="10"
     inkscape:pageopacity="0"
     inkscape:pageshadow="2"
     inkscape:window-width="1920"
     inkscape:window-height="1017"
     id="namedview1570"
     showgrid="false"
     units="mm"
     inkscape:zoom="1.324937"
     inkscape:cx="260.88696"
     inkscape:cy="180.945"
     inkscape:window-x="-8"
     inkscape:window-y="-8"
     inkscape:window-maximized="1"
     inkscape:current-layer="g1576" />
  <g
     inkscape:groupmode="layer"
     inkscape:label="Image"
     id="g1576">
    <path
       style="fill:#f777a2;fill-opacity:1;stroke:#000000;stroke-width:0;stroke-linecap:butt;stroke-linejoin:miter;stroke-miterlimit:4;stroke-dasharray:none;stroke-opacity:1"
       d="m 102.54219,278.10293 c 0,0 -22.996276,14.70201 -40.095085,0.48098 -17.098788,-14.221 -34.197597,-27.94303 -38.885986,-57.63254 -4.688371,-29.68946 -4.136807,-54.13964 -4.136807,-54.13964 0,0 56.812161,17.21492 72.532039,31.9349 15.719859,14.72001 25.923989,26.9451 28.130289,37.67322 2.20629,10.72814 -1.95445,29.26104 -4.68837,32.43389 -1.79188,2.07955 -12.51137,9.45707 -12.85608,9.24919 z"
       id="path2143"
       sodipodi:nodetypes="csscsssc" />
    <path
       style="fill:#fee5eb;fill-opacity:1;stroke:#000000;stroke-width:0;stroke-linecap:butt;stroke-linejoin:miter;stroke-miterlimit:4;stroke-dasharray:none;stroke-opacity:1"
       d="m 116.20974,188.6891 c 0,0 -17.641289,11.74166 -32.107209,1.8198 -14.465903,-9.92183 -28.905058,-19.47364 -34.254501,-41.31925 -5.349464,-21.84558 -6.218542,-39.99711 -6.218542,-39.99711 0,0 46.4535,10.6928 59.841052,21.03499 13.38758,10.34221 22.22094,19.03555 24.5644,26.91064 2.34349,7.8751 0.92002,22.40684 -2.01809,24.22291 -0.8592,0.53107 -9.0471,7.32802 -9.80711,7.32802 z"
       id="path2143-4"
       sodipodi:nodetypes="csscsssc" />
    <path
       style="fill:#fca4c4;fill-opacity:1;stroke:#000000;stroke-width:0;stroke-linecap:butt;stroke-linejoin:miter;stroke-miterlimit:4;stroke-dasharray:none;stroke-opacity:1"
       d="m 126.87571,115.9154 c 0,0 -11.78194,8.24472 -21.44316,1.27782 -9.661263,-6.96687 -19.304609,-13.6739 -22.877326,-29.013413 -3.572697,-15.339464 -4.153136,-28.085036 -4.153136,-28.085036 0,0 31.024562,7.508228 39.965592,14.770279 8.94108,7.26207 14.84056,13.366312 16.40566,18.896023 1.56511,5.529712 0.11323,15.309237 -1.3478,17.008767 -2.34392,2.72649 -6.54983,5.29411 -6.54983,5.14556 z"
       id="path2143-4-7"
       sodipodi:nodetypes="csscsssc" />
    <path
       style="fill:#f5749d;fill-opacity:1;stroke:#000000;stroke-width:0;stroke-linecap:butt;stroke-linejoin:miter;stroke-miterlimit:4;stroke-dasharray:none;stroke-opacity:1"
       d="m 140.42618,68.218149 c 0,0 -14.23394,0.01908 -17.05231,-9.432144 -2.8184,-9.45118 -5.7908,-18.714528 1.39849,-31.011222 7.18927,-12.296655 14.97017,-21.3653591 14.97017,-21.3653591 0,0 18.63703,20.0994141 20.71997,29.4077321 2.08298,9.308338 2.61083,16.355366 0.22892,20.921479 -2.38187,4.566132 -9.88064,10.419676 -11.98972,11.081256 -3.27228,1.026445 -8.4063,0.595463 -8.27552,0.398258 z"
       id="path2143-4-7-0"
       sodipodi:nodetypes="csscsssc" />
    <path
       style="fill:#fee5eb;fill-opacity:1;stroke:#000000;stroke-width:0;stroke-linecap:butt;stroke-linejoin:miter;stroke-miterlimit:4;stroke-dasharray:none;stroke-opacity:1"
       d="m 153.08229,110.99893 c 0,0 -10.8003,-9.94278 -4.01121,-19.720961 6.78904,-9.778268 13.28408,-19.509098 30.34082,-24.636022 17.05675,-5.126887 31.51369,-7.173641 31.51369,-7.173641 0,0 -4.86064,29.640562 -12.07192,38.786252 -7.21126,9.145742 -13.46538,15.335662 -19.5811,17.440722 -6.11573,2.10503 -17.18002,1.36062 -19.54549,0.76447 -2.70331,-0.6813 -7.0106,-5.19607 -6.64479,-5.46082 z"
       id="path2143-4-7-3"
       sodipodi:nodetypes="csscsssc" />
    <path
       style="fill:#fca4c4;fill-opacity:1;stroke:#000000;stroke-width:0;stroke-linecap:butt;stroke-linejoin:miter;stroke-miterlimit:4;stroke-dasharray:none;stroke-opacity:1"
       d="m 160.3728,181.57808 c 0,0 -15.79501,-14.15868 -5.86623,-28.08295 9.92868,-13.92443 19.42743,-27.78126 44.37223,-35.08209 24.94481,-7.30076 46.08748,-10.21536 46.08748,-10.21536 0,0 -7.10849,42.20861 -17.65468,55.2322 -10.54617,13.02369 -19.69258,21.83824 -28.63657,24.83586 -8.94401,2.99761 -26.01185,3.24155 -28.5845,1.08862 -3.62122,-3.03039 -9.89196,-7.77628 -9.71773,-7.77628 z"
       id="path2143-4-7-3-3"
       sodipodi:nodetypes="csscsssc" />
    <path
       style="fill:#fca4c4;fill-opacity:1;stroke:#000000;stroke-width:0;stroke-linecap:butt;stroke-linejoin:miter;stroke-miterlimit:4;stroke-dasharray:none;stroke-opacity:1"
       d="m 172.89404,273.2322 c 0,0 -21.97199,-17.2253 -11.84238,-36.84382 10.1295,-19.61867 19.73405,-39.10199 49.64909,-51.46477 29.91513,-12.36264 55.79854,-18.47454 55.79854,-18.47454 0,0 -2.05143,57.05141 -13.09595,75.53336 -11.04449,18.48216 -21.02323,31.20231 -31.68802,36.14174 -10.66484,4.93945 -31.56496,6.84024 -35.454,4.45894 -4.62121,-2.82965 -13.79877,-9.18362 -13.36728,-9.35091 z"
       id="path2143-4-7-3-3-6"
       sodipodi:nodetypes="csscsssc" />
    <path
       style="fill:#824f21;fill-opacity:1;stroke:#000000;stroke-width:0;stroke-linecap:butt;stroke-linejoin:miter;stroke-miterlimit:4;stroke-dasharray:none;stroke-opacity:1"
       d="m 126.72278,390.20122 7.02039,-76.21219 -69.423904,-89.6199 74.884224,71.27251 0.78003,-76.21218 -48.362705,-59.98184 46.022575,40.92877 -0.78003,-71.2725 -22.62128,-32.460746 24.96141,23.287046 2.34014,-97.382224 5.4603,93.148214 27.30155,-25.404059 -27.30155,39.517429 0.78006,70.56684 44.46248,-42.34011 -42.9024,60.68751 v 74.09519 l 70.98402,-67.74417 -71.76408,93.14823 10.14059,72.68384 z"
       id="path2141-3" />
  </g>
</svg>
